<?xml version="1.0" encoding="UTF-8" standalone="no"?>
<!-- Created with Inkscape (http://www.inkscape.org/) -->

<svg
   width="800"
   height="400"
   viewBox="0 0 211.66666 105.83333"
   version="1.1"
   id="svg5"
   xmlns="http://www.w3.org/2000/svg">  
  <path     
     d="M 201.50434,3.8652564 V 59.520067 h 8.06878 V 3.8652564 Z m 2.38095,49.7024246 -34.42463,32.83733 5.55556,5.820111 34.42464,-32.83733 z m 0,-50.694489 -34.42463,32.83733 5.55556,5.820111 34.42464,-32.83733 z m -155.291138,0 v 8.035721 H 209.54006 V 2.873192 Z m 0,0 -34.457703,32.83733 5.555561,5.820111 34.457703,-32.83733 z M 14.136449,84.354746 v 8.035721 H 175.08236 V 84.354746 Z M 167.04664,35.875866 v 55.456399 h 8.03572 V 35.875866 Z m -152.910191,0 v 55.456399 h 8.06879 V 35.875866 Z m 0,0 v 8.035722 H 175.08236 v -8.035722 z" />
  <path
     d="m 5.6692267,61.682057 h 1.0438606 v 3.162587 h 3.7930377 v -3.162587 h 1.043861 v 7.715267 H 10.506125 V 65.723141 H 6.7130873 v 3.674183 H 5.6692267 Z" />
  <path
     d="m 92.985564,95.375461 -1.41593,3.839547 h 2.837027 z m -0.58911,-1.028357 h 1.183387 l 2.94038,7.715266 h -1.085202 l -0.702797,-1.9792 h -3.477813 l -0.702797,1.9792 h -1.100705 z" />
  <path
     d="m 196.25702,80.134856 v 2.826692 h 1.67431 q 0.84233,0 1.2454,-0.346231 0.40824,-0.351399 0.40824,-1.069699 0,-0.723467 -0.40824,-1.064531 -0.40307,-0.346231 -1.2454,-0.346231 z m 0,-3.172923 v 2.325432 h 1.54512 q 0.76481,0 1.13688,-0.284219 0.37724,-0.289387 0.37724,-0.878497 0,-0.583941 -0.37724,-0.873329 -0.37207,-0.289387 -1.13688,-0.289387 z m -1.04386,-0.857826 h 2.6665 q 1.19372,0 1.83967,0.496092 0.64596,0.496093 0.64596,1.410763 0,0.707964 -0.33073,1.126542 -0.33073,0.418578 -0.97152,0.521931 0.76998,0.165364 1.19373,0.692462 0.42891,0.52193 0.42891,1.307409 0,1.033525 -0.7028,1.596797 -0.7028,0.563271 -1.99987,0.563271 h -2.76985 z" />
</svg>
