<?xml version="1.0" encoding="UTF-8" standalone="no"?>
<!-- Created with Inkscape (http://www.inkscape.org/) -->

<svg
   width="800"
   height="400"
   viewBox="0 0 211.66666 105.83333"
   version="1.1"
   id="svg5"
   xmlns="http://www.w3.org/2000/svg"   >
  />
  <path
     id="path3226"
     style="color:#000000;fill:#000000;stroke-dasharray:3.65312, 1.82656;-inkscape-stroke:none"
     d="m 27.046875,15.269531 -1.574219,0.927735 1.855469,3.146484 1.574219,-0.927734 z m 2.783203,4.720703 -1.574219,0.927735 1.855469,3.146484 1.572266,-0.927734 z m 2.78125,4.720703 -1.572266,0.927735 1.853516,3.146484 1.574219,-0.927734 z m 2.783203,4.720704 -1.574219,0.927734 1.855469,3.146484 1.572266,-0.927734 z m 2.78125,4.720703 -1.572265,0.927734 1.853515,3.146484 1.574219,-0.927734 z m 2.783203,4.720703 -1.574218,0.927734 1.855468,3.146485 1.574219,-0.927735 z m 2.783203,4.720703 -1.574218,0.927734 1.855468,3.146485 1.572266,-0.927735 z m 2.78125,4.720703 -1.574218,0.927734 1.855468,3.146485 1.574219,-0.927735 z m 2.783204,4.720703 -1.574219,0.927735 1.855469,3.146484 1.572265,-0.927734 z m 2.78125,4.720703 -1.572266,0.927735 1.853516,3.146484 1.574218,-0.927734 z m 2.783203,4.720703 -1.574219,0.927735 1.855469,3.146484 1.574218,-0.927734 z m 2.783203,4.720704 -1.574219,0.927734 1.855469,3.146484 1.572265,-0.927734 z m 2.78125,4.720703 -1.574219,0.927734 1.855469,3.146484 1.574219,-0.927734 z M 63.21875,76.638672 61.644531,77.566406 63.5,80.712891 65.072266,79.785156 Z M 66,81.359375 l -1.572266,0.927734 0.583985,0.992188 1.574218,-0.927735 z m -16.392578,3.050781 v 8.441406 H 166.85742 V 84.410156 Z M 49.644531,5.78125 v 8.441406 H 166.84375 V 5.78125 Z M 166.7865,92.858199 c 20.65017,-1.192957 36.62167,-20.555443 36.62166,-43.556922 0,-23.00148 -15.97149,-42.339331 -36.62166,-43.5307512 v 8.4706122 c 15.49437,1.205608 28.17722,16.11945 28.17722,35.060139 0,18.940688 -12.68285,33.878707 -28.17722,35.08631 z M 47.132812,5.6992187 C 25.512848,5.699218 8.4902348,25.559831 8.4902344,49.306641 c 0,23.74681 17.0226136,43.609375 38.6425776,43.609375 21.619965,0 38.640625,-19.862566 38.640625,-43.609375 0,-23.74681 -17.020661,-43.6074223 -38.640625,-43.6074223 z m 0,8.4394533 c 16.399956,0 30.199219,15.407448 30.199219,35.167969 0,19.760521 -13.799263,35.167968 -30.199219,35.167968 -16.399956,10e-7 -30.201171,-15.407447 -30.201171,-35.167968 0,-19.760522 13.801215,-35.16797 30.201171,-35.167969 z" />
  <path
     d="m 101.88953,95.306164 h 1.04386 v 3.162588 h 3.79304 v -3.162588 h 1.04386 v 7.715266 h -1.04386 v -3.674182 h -3.79304 v 3.674182 h -1.04386 z"
     id="path63585"
     style="font-size:10.5833px;line-height:1.25;letter-spacing:0px;word-spacing:0px;stroke-width:0.264583" />
  <path
     d="m 51.307156,40.769919 v -3.131581 h 0.950843 v 8.040827 h -0.950843 v -0.868161 q -0.299723,0.516762 -0.759642,0.769976 -0.454751,0.248046 -1.095536,0.248046 -1.049029,0 -1.710485,-0.837155 -0.656289,-0.837156 -0.656289,-2.201409 0,-1.364254 0.656289,-2.201409 0.661456,-0.837156 1.710485,-0.837156 0.640785,0 1.095536,0.253214 0.459919,0.248046 0.759642,0.764808 z m -3.240102,2.020543 q 0,1.049028 0.428913,1.648472 0.43408,0.594278 1.188554,0.594278 0.754473,0 1.188554,-0.594278 0.434081,-0.599444 0.434081,-1.648472 0,-1.049029 -0.434081,-1.643306 -0.434081,-0.599445 -1.188554,-0.599445 -0.754474,0 -1.188554,0.599445 -0.428913,0.594277 -0.428913,1.643306 z"
     id="path63564"
     style="font-size:10.5833px;line-height:1.25;letter-spacing:0px;word-spacing:0px;stroke-width:0.264583" />
</svg>
