<?xml version="1.0" encoding="UTF-8" standalone="no"?>
<!-- Created with Inkscape (http://www.inkscape.org/) -->

<svg
   width="800"
   height="400"
   viewBox="0 0 211.66666 105.83333"
   version="1.1"
   id="svg5"
   xmlns="http://www.w3.org/2000/svg">
  <defs
     id="defs2" />
  <path
     id="path3226"
     style="color:#000000;fill:#000000;stroke-width:1.07114;stroke-dasharray:3.913, 1.9565;-inkscape-stroke:none"
     d="m 45.319137,91.960586 v 9.041904 H 170.90998 V 91.960586 Z M 45.358886,7.7382259 V 16.780132 H 170.89535 V 7.7382259 Z M 170.83402,101.0096 c 22.11917,-1.277821 39.22684,-22.017703 39.22683,-46.655446 0,-24.637746 -17.10766,-45.3512404 -39.22683,-46.6274151 v 9.0731901 c 16.5966,1.291371 30.18168,17.266145 30.18168,37.554225 0,20.288079 -13.58508,36.288749 -30.18168,37.582258 z M 42.668489,7.6503592 C 19.510538,7.6503585 1.2769804,28.923804 1.27698,54.359899 c 0,25.436096 18.233558,46.711631 41.391509,46.711631 23.157953,0 41.389418,-21.275536 41.389418,-46.711631 0,-25.436095 -18.231466,-46.7095398 -41.389418,-46.7095398 z m 0,9.0398148 c 17.566607,0 32.347512,16.503493 32.347512,37.669725 0,21.166233 -14.780905,37.669725 -32.347512,37.669725 -17.566606,2e-6 -32.349602,-16.503492 -32.349602,-37.669725 0,-21.166234 14.782996,-37.669726 32.349602,-37.669725 z" />
</svg>
