<?xml version="1.0" encoding="UTF-8" standalone="no"?>
<!-- Created with Inkscape (http://www.inkscape.org/) -->

<svg
   width="800"
   height="400"
   viewBox="0 0 211.66666 105.83333"
   version="1.1"
   id="svg5"
   xmlns="http://www.w3.org/2000/svg"
  <defs
     id="defs2" />
  <path
     style="color:#000000;fill:#000000;fill-rule:evenodd;stroke-linecap:round;stroke-linejoin:round;stroke-dashoffset:5.64938;-inkscape-stroke:none;paint-order:fill markers stroke"
     d="m 7.4613634,4.8493155 c -1.314768,3.47e-4 -2.380512,1.066091 -2.380859,2.380859 V 59.86494 c 3.47e-4,1.314768 1.066091,2.380512 2.380859,2.380859 L 82.348629,101.86814 c 1.314769,-3.5e-4 2.380513,-1.06609 2.38086,-2.38086 V 46.852512 C 84.729142,45.537743 83.663398,44.472 82.348629,44.471653 Z M 9.8422224,11.743073 79.96777,49.233372 v 45.45961 L 9.8422224,57.484081 Z"
     id="path2409" />
  <path
     id="path4717"
     style="color:#000000;fill:#000000;fill-rule:evenodd;stroke-width:3.77953;stroke-linecap:round;stroke-linejoin:round;stroke-dashoffset:5.64938;-inkscape-stroke:none;paint-order:fill markers stroke"
     d="M 486.68555 18.328125 C 481.71634 18.329436 477.68882 22.35697 477.6875 27.326172 L 477.6875 34.771484 L 495.68555 44.382812 L 760.72656 186.07812 L 760.72656 357.89453 L 760.70703 357.88477 L 760.7793 380.28125 L 769.72461 385.01367 C 774.69378 385.01235 778.72133 380.98483 778.72266 376.01562 L 778.72266 177.08008 C 778.72133 172.11087 774.69378 168.08334 769.72461 168.08203 L 486.68555 18.328125 z "
     transform="scale(0.26458333)" />
  <path
     style="fill:#000000;fill-opacity:1;stroke:#000000;stroke-width:4.40085;stroke-linecap:butt;stroke-linejoin:miter;stroke-miterlimit:4;stroke-dasharray:none;stroke-opacity:1"
     d="m 7.3449314,7.0140552 h 118.0990986 3.2271"
     id="path4833" />
  <path
     style="fill:#000000;fill-opacity:1;stroke:#000000;stroke-width:4.40085;stroke-linecap:butt;stroke-linejoin:miter;stroke-miterlimit:4;stroke-dasharray:none;stroke-opacity:1"
     d="m 81.865451,46.813757 h 118.099099 3.2271"
     id="path5369" />
  <path
     style="fill:#000000;fill-opacity:1;stroke:#000000;stroke-width:4.40085;stroke-linecap:butt;stroke-linejoin:miter;stroke-miterlimit:4;stroke-dasharray:none;stroke-opacity:1"
     d="m 82.470695,99.788008 h 118.099095 3.2271"
     id="path5371" />
  <path
     style="color:#000000;fill:#000000;fill-rule:evenodd;stroke-width:0.713557;stroke-linecap:round;stroke-linejoin:round;stroke-dashoffset:5.64938;-inkscape-stroke:none;paint-order:fill markers stroke"
     d="m 13.542618,15.933178 c -0.938162,2.48e-4 -1.69863,0.760717 -1.698878,1.698877 v 37.557871 c 2.48e-4,0.93816 0.760716,1.698629 1.698878,1.698877 L 76.232615,90.36845 c 0.938163,-2.49e-4 1.698631,-0.760715 1.698879,-1.698878 V 51.111701 c -2.48e-4,-0.938162 -0.760716,-1.69863 -1.698879,-1.698877 z m 1.698876,4.919086 59.292246,31.958313 V 85.248571 L 15.241494,53.491049 Z"
     id="path5586" />
  <path
     style="fill:#000000;fill-opacity:1;stroke:#000000;stroke-width:3.13971;stroke-linecap:butt;stroke-linejoin:miter;stroke-miterlimit:4;stroke-dasharray:none;stroke-opacity:1"
     d="m 13.220899,55.169086 h 60.110933 1.642553"
     id="path5839" />
  <text
     xml:space="preserve"
     style="font-style:normal;font-weight:normal;font-size:10.5833px;line-height:1.25;font-family:sans-serif;letter-spacing:0px;word-spacing:0px;fill:#000000;fill-opacity:1;stroke:none;stroke-width:0.264583"
     x="32.990135"
     y="88.223427"
     id="text8109"><tspan
       id="tspan8107"
       style="stroke-width:0.264583"
       x="32.990135"
       y="88.223427">A</tspan></text>
  <text
     xml:space="preserve"
     style="font-style:normal;font-weight:normal;font-size:10.5833px;line-height:1.25;font-family:sans-serif;letter-spacing:0px;word-spacing:0px;fill:#000000;fill-opacity:1;stroke:none;stroke-width:0.264583"
     x="86.467529"
     y="75.64402"
     id="text19903"><tspan
       id="tspan19901"
       style="stroke-width:0.264583"
       x="86.467529"
       y="75.64402">B</tspan></text>
  <text
     xml:space="preserve"
     style="font-style:normal;font-weight:normal;font-size:10.5833px;line-height:1.25;font-family:sans-serif;letter-spacing:0px;word-spacing:0px;fill:#000000;fill-opacity:1;stroke:none;stroke-width:0.264583"
     x="140.50793"
     y="95.271042"
     id="text29431"><tspan
       id="tspan29429"
       style="stroke-width:0.264583"
       x="140.50793"
       y="95.271042">L</tspan></text>
</svg>
